<svg width="19" height="63" viewBox="0 0 19 63" fill="none" xmlns="http://www.w3.org/2000/svg">
<path fill-rule="evenodd" clip-rule="evenodd" d="M17.4553 54.4715L10.2584 61.6685C9.81674 62.1101 9.1007 62.1101 8.65906 61.6685L1.46212 54.4715C1.02048 54.0299 1.02048 53.3139 1.46212 52.8722C1.90376 52.4306 2.6198 52.4306 3.06144 52.8722L8.32783 58.1386V0.554682H10.5896V58.1386L15.856 52.8722C16.2976 52.4306 17.0137 52.4306 17.4553 52.8722C17.897 53.3139 17.897 54.0299 17.4553 54.4715Z" fill="white"/>
<path fill-rule="evenodd" clip-rule="evenodd" d="M17.7219 52.6057C18.3107 53.1945 18.3107 54.1493 17.7219 54.7381L10.5249 61.935C9.93606 62.5239 8.98134 62.5239 8.39249 61.935L1.19555 54.7381C0.606693 54.1493 0.606693 53.1945 1.19555 52.6057C1.7844 52.0168 2.73912 52.0168 3.32797 52.6057L7.95085 57.2285V0.177734H10.9666V57.2285L15.5894 52.6057C16.1783 52.0168 17.133 52.0168 17.7219 52.6057ZM17.1887 54.205C17.4832 53.9106 17.4832 53.4332 17.1887 53.1388C16.8943 52.8444 16.417 52.8444 16.1225 53.1388L10.2126 59.0487V0.931661H8.70477V59.0487L2.79487 53.1388C2.50044 52.8444 2.02308 52.8444 1.72865 53.1388C1.43423 53.4332 1.43423 53.9106 1.72865 54.205L8.92559 61.4019C9.22002 61.6964 9.69738 61.6964 9.99181 61.4019L17.1887 54.205Z" fill="white"/>
</svg>
