<svg width="41" height="41" viewBox="0 0 41 41" fill="none" xmlns="http://www.w3.org/2000/svg">
<path fill-rule="evenodd" clip-rule="evenodd" d="M20.5061 40.7081C31.6096 40.7279 40.6268 31.7428 40.6466 20.6393C40.6664 9.53579 31.6813 0.518563 20.5778 0.498756C9.47432 0.478948 0.457087 9.46406 0.43728 20.5676C0.417472 31.6711 9.40259 40.6883 20.5061 40.7081ZM21.9576 18.8912L22.9885 8.80122L18.025 8.79237L19.0706 18.886L9.45261 16.0305L8.73491 20.8649L17.9514 21.6698L12.0108 29.9639L16.5141 32.4423L20.4304 23.251L24.719 32.4569L29.0791 29.9943L23.0669 21.6789L32.3875 20.9071L31.687 16.0702L21.9576 18.8912Z" fill="#D9D9D9"/>
</svg>
